<mxfile host="app.diagrams.net" agent="Mozilla/5.0 (Windows NT 10.0; Win64; x64) AppleWebKit/537.36 (KHTML, like Gecko) Chrome/131.0.0.0 Safari/537.36" version="25.0.1">
  <diagram name="Страница — 1" id="dBE4Gy3DHyH2gSngV-Eo">
    <mxGraphModel dx="1316" dy="590" grid="1" gridSize="10" guides="1" tooltips="1" connect="1" arrows="1" fold="1" page="1" pageScale="1" pageWidth="850" pageHeight="1100" math="0" shadow="0">
      <root>
        <mxCell id="0" />
        <mxCell id="1" parent="0" />
        <mxCell id="BuE6CKhQtHcqcWTQn6iz-37" style="edgeStyle=orthogonalEdgeStyle;rounded=0;orthogonalLoop=1;jettySize=auto;html=1;exitX=1;exitY=0.5;exitDx=0;exitDy=0;entryX=0;entryY=0.5;entryDx=0;entryDy=0;" edge="1" parent="1" source="BuE6CKhQtHcqcWTQn6iz-1" target="BuE6CKhQtHcqcWTQn6iz-5">
          <mxGeometry relative="1" as="geometry" />
        </mxCell>
        <mxCell id="BuE6CKhQtHcqcWTQn6iz-38" style="edgeStyle=orthogonalEdgeStyle;rounded=0;orthogonalLoop=1;jettySize=auto;html=1;exitX=1;exitY=0.5;exitDx=0;exitDy=0;entryX=0;entryY=0.5;entryDx=0;entryDy=0;" edge="1" parent="1" source="BuE6CKhQtHcqcWTQn6iz-1" target="BuE6CKhQtHcqcWTQn6iz-7">
          <mxGeometry relative="1" as="geometry" />
        </mxCell>
        <mxCell id="BuE6CKhQtHcqcWTQn6iz-39" style="edgeStyle=orthogonalEdgeStyle;rounded=0;orthogonalLoop=1;jettySize=auto;html=1;exitX=1;exitY=0.5;exitDx=0;exitDy=0;entryX=0;entryY=0.5;entryDx=0;entryDy=0;" edge="1" parent="1" source="BuE6CKhQtHcqcWTQn6iz-1" target="BuE6CKhQtHcqcWTQn6iz-10">
          <mxGeometry relative="1" as="geometry" />
        </mxCell>
        <mxCell id="BuE6CKhQtHcqcWTQn6iz-40" style="edgeStyle=orthogonalEdgeStyle;rounded=0;orthogonalLoop=1;jettySize=auto;html=1;exitX=1;exitY=0.5;exitDx=0;exitDy=0;entryX=0;entryY=0.5;entryDx=0;entryDy=0;" edge="1" parent="1" source="BuE6CKhQtHcqcWTQn6iz-1" target="BuE6CKhQtHcqcWTQn6iz-9">
          <mxGeometry relative="1" as="geometry" />
        </mxCell>
        <mxCell id="BuE6CKhQtHcqcWTQn6iz-1" value="Безопасность данных" style="rounded=1;whiteSpace=wrap;html=1;fillColor=#00CC00;" vertex="1" parent="1">
          <mxGeometry x="50" y="290" width="120" height="60" as="geometry" />
        </mxCell>
        <mxCell id="BuE6CKhQtHcqcWTQn6iz-41" style="edgeStyle=orthogonalEdgeStyle;rounded=0;orthogonalLoop=1;jettySize=auto;html=1;exitX=1;exitY=0.5;exitDx=0;exitDy=0;entryX=0;entryY=0.5;entryDx=0;entryDy=0;" edge="1" parent="1" source="BuE6CKhQtHcqcWTQn6iz-5" target="BuE6CKhQtHcqcWTQn6iz-12">
          <mxGeometry relative="1" as="geometry" />
        </mxCell>
        <mxCell id="BuE6CKhQtHcqcWTQn6iz-5" value="Публичные данные" style="rounded=1;whiteSpace=wrap;html=1;fillColor=#128ECC;" vertex="1" parent="1">
          <mxGeometry x="240" y="80" width="120" height="60" as="geometry" />
        </mxCell>
        <mxCell id="BuE6CKhQtHcqcWTQn6iz-42" style="edgeStyle=orthogonalEdgeStyle;rounded=0;orthogonalLoop=1;jettySize=auto;html=1;exitX=1;exitY=0.5;exitDx=0;exitDy=0;entryX=0;entryY=0.5;entryDx=0;entryDy=0;" edge="1" parent="1" source="BuE6CKhQtHcqcWTQn6iz-7" target="BuE6CKhQtHcqcWTQn6iz-13">
          <mxGeometry relative="1" as="geometry" />
        </mxCell>
        <mxCell id="BuE6CKhQtHcqcWTQn6iz-7" value="&lt;p&gt;Внутренние данные&lt;/p&gt;" style="rounded=1;whiteSpace=wrap;html=1;fillColor=#128ECC;" vertex="1" parent="1">
          <mxGeometry x="240" y="220" width="120" height="60" as="geometry" />
        </mxCell>
        <mxCell id="BuE6CKhQtHcqcWTQn6iz-44" style="edgeStyle=orthogonalEdgeStyle;rounded=0;orthogonalLoop=1;jettySize=auto;html=1;exitX=1;exitY=0.5;exitDx=0;exitDy=0;entryX=0;entryY=0.5;entryDx=0;entryDy=0;" edge="1" parent="1" source="BuE6CKhQtHcqcWTQn6iz-9" target="BuE6CKhQtHcqcWTQn6iz-11">
          <mxGeometry relative="1" as="geometry" />
        </mxCell>
        <mxCell id="BuE6CKhQtHcqcWTQn6iz-9" value="Секретные данные" style="rounded=1;whiteSpace=wrap;html=1;fillColor=#128ECC;" vertex="1" parent="1">
          <mxGeometry x="240" y="500" width="120" height="60" as="geometry" />
        </mxCell>
        <mxCell id="BuE6CKhQtHcqcWTQn6iz-43" style="edgeStyle=orthogonalEdgeStyle;rounded=0;orthogonalLoop=1;jettySize=auto;html=1;exitX=1;exitY=0.5;exitDx=0;exitDy=0;" edge="1" parent="1" source="BuE6CKhQtHcqcWTQn6iz-10" target="BuE6CKhQtHcqcWTQn6iz-14">
          <mxGeometry relative="1" as="geometry" />
        </mxCell>
        <mxCell id="BuE6CKhQtHcqcWTQn6iz-10" value="&lt;p&gt;Конфеденциальные данные&lt;/p&gt;" style="rounded=1;whiteSpace=wrap;html=1;fillColor=#128ECC;" vertex="1" parent="1">
          <mxGeometry x="240" y="360" width="120" height="60" as="geometry" />
        </mxCell>
        <mxCell id="BuE6CKhQtHcqcWTQn6iz-50" style="edgeStyle=orthogonalEdgeStyle;rounded=0;orthogonalLoop=1;jettySize=auto;html=1;exitX=1;exitY=0.5;exitDx=0;exitDy=0;entryX=0;entryY=0.5;entryDx=0;entryDy=0;" edge="1" parent="1" source="BuE6CKhQtHcqcWTQn6iz-11" target="BuE6CKhQtHcqcWTQn6iz-21">
          <mxGeometry relative="1" as="geometry" />
        </mxCell>
        <mxCell id="BuE6CKhQtHcqcWTQn6iz-51" style="edgeStyle=orthogonalEdgeStyle;rounded=0;orthogonalLoop=1;jettySize=auto;html=1;exitX=1;exitY=0.5;exitDx=0;exitDy=0;entryX=0;entryY=0.5;entryDx=0;entryDy=0;" edge="1" parent="1" source="BuE6CKhQtHcqcWTQn6iz-11" target="BuE6CKhQtHcqcWTQn6iz-22">
          <mxGeometry relative="1" as="geometry" />
        </mxCell>
        <mxCell id="BuE6CKhQtHcqcWTQn6iz-11" value="Ключи доступа, токены" style="rounded=1;whiteSpace=wrap;html=1;fillColor=#128ECC;" vertex="1" parent="1">
          <mxGeometry x="400" y="500" width="120" height="60" as="geometry" />
        </mxCell>
        <mxCell id="BuE6CKhQtHcqcWTQn6iz-45" style="edgeStyle=orthogonalEdgeStyle;rounded=0;orthogonalLoop=1;jettySize=auto;html=1;exitX=1;exitY=0.5;exitDx=0;exitDy=0;entryX=0;entryY=0.5;entryDx=0;entryDy=0;" edge="1" parent="1" source="BuE6CKhQtHcqcWTQn6iz-12" target="BuE6CKhQtHcqcWTQn6iz-15">
          <mxGeometry relative="1" as="geometry" />
        </mxCell>
        <mxCell id="BuE6CKhQtHcqcWTQn6iz-12" value="&lt;p&gt;Информация о недвижимости&lt;span style=&quot;white-space: pre;&quot;&gt;&#x9;&lt;/span&gt;&lt;/p&gt;" style="rounded=1;whiteSpace=wrap;html=1;fillColor=#128ECC;" vertex="1" parent="1">
          <mxGeometry x="400" y="80" width="120" height="60" as="geometry" />
        </mxCell>
        <mxCell id="BuE6CKhQtHcqcWTQn6iz-46" style="edgeStyle=orthogonalEdgeStyle;rounded=0;orthogonalLoop=1;jettySize=auto;html=1;exitX=1;exitY=0.5;exitDx=0;exitDy=0;entryX=0;entryY=0.5;entryDx=0;entryDy=0;" edge="1" parent="1" source="BuE6CKhQtHcqcWTQn6iz-13" target="BuE6CKhQtHcqcWTQn6iz-17">
          <mxGeometry relative="1" as="geometry" />
        </mxCell>
        <mxCell id="BuE6CKhQtHcqcWTQn6iz-47" style="edgeStyle=orthogonalEdgeStyle;rounded=0;orthogonalLoop=1;jettySize=auto;html=1;exitX=1;exitY=0.5;exitDx=0;exitDy=0;entryX=0;entryY=0.5;entryDx=0;entryDy=0;" edge="1" parent="1" source="BuE6CKhQtHcqcWTQn6iz-13" target="BuE6CKhQtHcqcWTQn6iz-18">
          <mxGeometry relative="1" as="geometry" />
        </mxCell>
        <mxCell id="BuE6CKhQtHcqcWTQn6iz-13" value="&lt;p&gt;API, архитектура&lt;/p&gt;" style="rounded=1;whiteSpace=wrap;html=1;fillColor=#128ECC;" vertex="1" parent="1">
          <mxGeometry x="400" y="220" width="120" height="60" as="geometry" />
        </mxCell>
        <mxCell id="BuE6CKhQtHcqcWTQn6iz-48" style="edgeStyle=orthogonalEdgeStyle;rounded=0;orthogonalLoop=1;jettySize=auto;html=1;exitX=1;exitY=0.5;exitDx=0;exitDy=0;entryX=0;entryY=0.5;entryDx=0;entryDy=0;" edge="1" parent="1" source="BuE6CKhQtHcqcWTQn6iz-14" target="BuE6CKhQtHcqcWTQn6iz-19">
          <mxGeometry relative="1" as="geometry" />
        </mxCell>
        <mxCell id="BuE6CKhQtHcqcWTQn6iz-49" style="edgeStyle=orthogonalEdgeStyle;rounded=0;orthogonalLoop=1;jettySize=auto;html=1;exitX=1;exitY=0.5;exitDx=0;exitDy=0;entryX=0;entryY=0.5;entryDx=0;entryDy=0;" edge="1" parent="1" source="BuE6CKhQtHcqcWTQn6iz-14" target="BuE6CKhQtHcqcWTQn6iz-20">
          <mxGeometry relative="1" as="geometry" />
        </mxCell>
        <mxCell id="BuE6CKhQtHcqcWTQn6iz-14" value="Данные клиентов" style="rounded=1;whiteSpace=wrap;html=1;fillColor=#128ECC;" vertex="1" parent="1">
          <mxGeometry x="400" y="360" width="120" height="60" as="geometry" />
        </mxCell>
        <mxCell id="BuE6CKhQtHcqcWTQn6iz-58" style="edgeStyle=orthogonalEdgeStyle;rounded=0;orthogonalLoop=1;jettySize=auto;html=1;exitX=1;exitY=0.5;exitDx=0;exitDy=0;entryX=0;entryY=0.5;entryDx=0;entryDy=0;" edge="1" parent="1" source="BuE6CKhQtHcqcWTQn6iz-15" target="BuE6CKhQtHcqcWTQn6iz-23">
          <mxGeometry relative="1" as="geometry" />
        </mxCell>
        <mxCell id="BuE6CKhQtHcqcWTQn6iz-15" value="&lt;p&gt;Искажение данных&lt;/p&gt;" style="rounded=1;whiteSpace=wrap;html=1;fillColor=#128ECC;" vertex="1" parent="1">
          <mxGeometry x="560" y="80" width="120" height="60" as="geometry" />
        </mxCell>
        <mxCell id="BuE6CKhQtHcqcWTQn6iz-52" style="edgeStyle=orthogonalEdgeStyle;rounded=0;orthogonalLoop=1;jettySize=auto;html=1;exitX=1;exitY=0.5;exitDx=0;exitDy=0;entryX=0;entryY=0.5;entryDx=0;entryDy=0;" edge="1" parent="1" source="BuE6CKhQtHcqcWTQn6iz-17" target="BuE6CKhQtHcqcWTQn6iz-29">
          <mxGeometry relative="1" as="geometry" />
        </mxCell>
        <mxCell id="BuE6CKhQtHcqcWTQn6iz-17" value="&lt;p&gt;Утечка данных&lt;/p&gt;" style="rounded=1;whiteSpace=wrap;html=1;fillColor=#128ECC;" vertex="1" parent="1">
          <mxGeometry x="560" y="220" width="120" height="60" as="geometry" />
        </mxCell>
        <mxCell id="BuE6CKhQtHcqcWTQn6iz-53" style="edgeStyle=orthogonalEdgeStyle;rounded=0;orthogonalLoop=1;jettySize=auto;html=1;exitX=1;exitY=0.5;exitDx=0;exitDy=0;entryX=0;entryY=0.5;entryDx=0;entryDy=0;" edge="1" parent="1" source="BuE6CKhQtHcqcWTQn6iz-18" target="BuE6CKhQtHcqcWTQn6iz-24">
          <mxGeometry relative="1" as="geometry" />
        </mxCell>
        <mxCell id="BuE6CKhQtHcqcWTQn6iz-18" value="&lt;p&gt;Обесценивание данных&lt;/p&gt;" style="rounded=1;whiteSpace=wrap;html=1;fillColor=#128ECC;" vertex="1" parent="1">
          <mxGeometry x="560" y="290" width="120" height="60" as="geometry" />
        </mxCell>
        <mxCell id="BuE6CKhQtHcqcWTQn6iz-54" style="edgeStyle=orthogonalEdgeStyle;rounded=0;orthogonalLoop=1;jettySize=auto;html=1;exitX=1;exitY=0.5;exitDx=0;exitDy=0;entryX=0;entryY=0.5;entryDx=0;entryDy=0;" edge="1" parent="1" source="BuE6CKhQtHcqcWTQn6iz-19" target="BuE6CKhQtHcqcWTQn6iz-25">
          <mxGeometry relative="1" as="geometry" />
        </mxCell>
        <mxCell id="BuE6CKhQtHcqcWTQn6iz-19" value="&lt;p&gt;Утечка данных&lt;/p&gt;" style="rounded=1;whiteSpace=wrap;html=1;fillColor=#128ECC;" vertex="1" parent="1">
          <mxGeometry x="560" y="360" width="120" height="60" as="geometry" />
        </mxCell>
        <mxCell id="BuE6CKhQtHcqcWTQn6iz-55" style="edgeStyle=orthogonalEdgeStyle;rounded=0;orthogonalLoop=1;jettySize=auto;html=1;exitX=1;exitY=0.5;exitDx=0;exitDy=0;entryX=0;entryY=0.5;entryDx=0;entryDy=0;" edge="1" parent="1" source="BuE6CKhQtHcqcWTQn6iz-20" target="BuE6CKhQtHcqcWTQn6iz-26">
          <mxGeometry relative="1" as="geometry" />
        </mxCell>
        <mxCell id="BuE6CKhQtHcqcWTQn6iz-20" value="&lt;p&gt;Искажение данных&lt;/p&gt;" style="rounded=1;whiteSpace=wrap;html=1;fillColor=#128ECC;" vertex="1" parent="1">
          <mxGeometry x="560" y="430" width="120" height="60" as="geometry" />
        </mxCell>
        <mxCell id="BuE6CKhQtHcqcWTQn6iz-56" style="edgeStyle=orthogonalEdgeStyle;rounded=0;orthogonalLoop=1;jettySize=auto;html=1;exitX=1;exitY=0.5;exitDx=0;exitDy=0;entryX=0;entryY=0.5;entryDx=0;entryDy=0;" edge="1" parent="1" source="BuE6CKhQtHcqcWTQn6iz-21" target="BuE6CKhQtHcqcWTQn6iz-27">
          <mxGeometry relative="1" as="geometry" />
        </mxCell>
        <mxCell id="BuE6CKhQtHcqcWTQn6iz-21" value="&lt;p&gt;Утечка данных&lt;/p&gt;" style="rounded=1;whiteSpace=wrap;html=1;fillColor=#128ECC;" vertex="1" parent="1">
          <mxGeometry x="560" y="500" width="120" height="60" as="geometry" />
        </mxCell>
        <mxCell id="BuE6CKhQtHcqcWTQn6iz-57" style="edgeStyle=orthogonalEdgeStyle;rounded=0;orthogonalLoop=1;jettySize=auto;html=1;exitX=1;exitY=0.5;exitDx=0;exitDy=0;entryX=0;entryY=0.5;entryDx=0;entryDy=0;" edge="1" parent="1" source="BuE6CKhQtHcqcWTQn6iz-22" target="BuE6CKhQtHcqcWTQn6iz-28">
          <mxGeometry relative="1" as="geometry" />
        </mxCell>
        <mxCell id="BuE6CKhQtHcqcWTQn6iz-22" value="&lt;p&gt;Потеря данных&lt;/p&gt;" style="rounded=1;whiteSpace=wrap;html=1;fillColor=#128ECC;" vertex="1" parent="1">
          <mxGeometry x="560" y="570" width="120" height="60" as="geometry" />
        </mxCell>
        <mxCell id="BuE6CKhQtHcqcWTQn6iz-59" style="edgeStyle=orthogonalEdgeStyle;rounded=0;orthogonalLoop=1;jettySize=auto;html=1;exitX=1;exitY=0.5;exitDx=0;exitDy=0;" edge="1" parent="1" source="BuE6CKhQtHcqcWTQn6iz-23" target="BuE6CKhQtHcqcWTQn6iz-30">
          <mxGeometry relative="1" as="geometry" />
        </mxCell>
        <mxCell id="BuE6CKhQtHcqcWTQn6iz-23" value="&lt;p&gt;Незначительный&lt;/p&gt;" style="rounded=1;whiteSpace=wrap;html=1;fillColor=#128ECC;" vertex="1" parent="1">
          <mxGeometry x="730" y="80" width="120" height="60" as="geometry" />
        </mxCell>
        <mxCell id="BuE6CKhQtHcqcWTQn6iz-61" style="edgeStyle=orthogonalEdgeStyle;rounded=0;orthogonalLoop=1;jettySize=auto;html=1;exitX=1;exitY=0.5;exitDx=0;exitDy=0;entryX=0;entryY=0.5;entryDx=0;entryDy=0;" edge="1" parent="1" source="BuE6CKhQtHcqcWTQn6iz-24" target="BuE6CKhQtHcqcWTQn6iz-31">
          <mxGeometry relative="1" as="geometry" />
        </mxCell>
        <mxCell id="BuE6CKhQtHcqcWTQn6iz-24" value="&lt;p&gt;Незначительный&lt;/p&gt;" style="rounded=1;whiteSpace=wrap;html=1;fillColor=#128ECC;" vertex="1" parent="1">
          <mxGeometry x="730" y="290" width="120" height="60" as="geometry" />
        </mxCell>
        <mxCell id="BuE6CKhQtHcqcWTQn6iz-62" style="edgeStyle=orthogonalEdgeStyle;rounded=0;orthogonalLoop=1;jettySize=auto;html=1;exitX=1;exitY=0.5;exitDx=0;exitDy=0;" edge="1" parent="1" source="BuE6CKhQtHcqcWTQn6iz-25" target="BuE6CKhQtHcqcWTQn6iz-32">
          <mxGeometry relative="1" as="geometry" />
        </mxCell>
        <mxCell id="BuE6CKhQtHcqcWTQn6iz-25" value="&lt;p&gt;Критический&lt;/p&gt;" style="rounded=1;whiteSpace=wrap;html=1;fillColor=#128ECC;" vertex="1" parent="1">
          <mxGeometry x="730" y="360" width="120" height="60" as="geometry" />
        </mxCell>
        <mxCell id="BuE6CKhQtHcqcWTQn6iz-63" style="edgeStyle=orthogonalEdgeStyle;rounded=0;orthogonalLoop=1;jettySize=auto;html=1;exitX=1;exitY=0.5;exitDx=0;exitDy=0;" edge="1" parent="1" source="BuE6CKhQtHcqcWTQn6iz-26" target="BuE6CKhQtHcqcWTQn6iz-33">
          <mxGeometry relative="1" as="geometry" />
        </mxCell>
        <mxCell id="BuE6CKhQtHcqcWTQn6iz-26" value="&lt;p&gt;Значительный&lt;/p&gt;" style="rounded=1;whiteSpace=wrap;html=1;fillColor=#128ECC;" vertex="1" parent="1">
          <mxGeometry x="730" y="430" width="120" height="60" as="geometry" />
        </mxCell>
        <mxCell id="BuE6CKhQtHcqcWTQn6iz-64" style="edgeStyle=orthogonalEdgeStyle;rounded=0;orthogonalLoop=1;jettySize=auto;html=1;exitX=1;exitY=0.5;exitDx=0;exitDy=0;entryX=0;entryY=0.5;entryDx=0;entryDy=0;" edge="1" parent="1" source="BuE6CKhQtHcqcWTQn6iz-27" target="BuE6CKhQtHcqcWTQn6iz-34">
          <mxGeometry relative="1" as="geometry" />
        </mxCell>
        <mxCell id="BuE6CKhQtHcqcWTQn6iz-27" value="&lt;p&gt;Критический&lt;/p&gt;" style="rounded=1;whiteSpace=wrap;html=1;fillColor=#128ECC;" vertex="1" parent="1">
          <mxGeometry x="730" y="500" width="120" height="60" as="geometry" />
        </mxCell>
        <mxCell id="BuE6CKhQtHcqcWTQn6iz-65" style="edgeStyle=orthogonalEdgeStyle;rounded=0;orthogonalLoop=1;jettySize=auto;html=1;exitX=1;exitY=0.5;exitDx=0;exitDy=0;entryX=0;entryY=0.5;entryDx=0;entryDy=0;" edge="1" parent="1" source="BuE6CKhQtHcqcWTQn6iz-28" target="BuE6CKhQtHcqcWTQn6iz-35">
          <mxGeometry relative="1" as="geometry" />
        </mxCell>
        <mxCell id="BuE6CKhQtHcqcWTQn6iz-28" value="&lt;p&gt;Значительный&lt;/p&gt;" style="rounded=1;whiteSpace=wrap;html=1;fillColor=#128ECC;" vertex="1" parent="1">
          <mxGeometry x="730" y="570" width="120" height="60" as="geometry" />
        </mxCell>
        <mxCell id="BuE6CKhQtHcqcWTQn6iz-60" style="edgeStyle=orthogonalEdgeStyle;rounded=0;orthogonalLoop=1;jettySize=auto;html=1;exitX=1;exitY=0.5;exitDx=0;exitDy=0;entryX=0;entryY=0.5;entryDx=0;entryDy=0;" edge="1" parent="1" source="BuE6CKhQtHcqcWTQn6iz-29" target="BuE6CKhQtHcqcWTQn6iz-36">
          <mxGeometry relative="1" as="geometry" />
        </mxCell>
        <mxCell id="BuE6CKhQtHcqcWTQn6iz-29" value="&lt;p&gt;Значительный&lt;/p&gt;" style="rounded=1;whiteSpace=wrap;html=1;fillColor=#128ECC;" vertex="1" parent="1">
          <mxGeometry x="730" y="220" width="120" height="60" as="geometry" />
        </mxCell>
        <mxCell id="BuE6CKhQtHcqcWTQn6iz-30" value="&lt;p&gt;Неправильные данные могут временно повлиять на репутацию, но они легко восстанавливаются&lt;/p&gt;" style="rounded=1;whiteSpace=wrap;html=1;fillColor=#128ECC;" vertex="1" parent="1">
          <mxGeometry x="910" y="80" width="210" height="60" as="geometry" />
        </mxCell>
        <mxCell id="BuE6CKhQtHcqcWTQn6iz-31" value="&lt;p&gt;Устаревшие данные API малополезны для злоумышленников&lt;/p&gt;" style="rounded=1;whiteSpace=wrap;html=1;fillColor=#128ECC;" vertex="1" parent="1">
          <mxGeometry x="910" y="290" width="170" height="60" as="geometry" />
        </mxCell>
        <mxCell id="BuE6CKhQtHcqcWTQn6iz-32" value="&lt;p&gt;Нарушение конфиденциальности клиентов, утрата репутации, штрафы за несоответствие нормам.&lt;/p&gt;" style="rounded=1;whiteSpace=wrap;html=1;fillColor=#128ECC;" vertex="1" parent="1">
          <mxGeometry x="910" y="360" width="260" height="60" as="geometry" />
        </mxCell>
        <mxCell id="BuE6CKhQtHcqcWTQn6iz-33" value="&lt;p&gt;Ошибки в данных приведут к невозможности или ошибке сделок&lt;/p&gt;" style="rounded=1;whiteSpace=wrap;html=1;fillColor=#128ECC;" vertex="1" parent="1">
          <mxGeometry x="910" y="430" width="190" height="60" as="geometry" />
        </mxCell>
        <mxCell id="BuE6CKhQtHcqcWTQn6iz-34" value="&lt;p&gt;Нарушение безопасности интеграций, угроза безопасности всей системы&lt;/p&gt;" style="rounded=1;whiteSpace=wrap;html=1;fillColor=#128ECC;" vertex="1" parent="1">
          <mxGeometry x="910" y="500" width="200" height="60" as="geometry" />
        </mxCell>
        <mxCell id="BuE6CKhQtHcqcWTQn6iz-35" value="&lt;p&gt;Необходимость восстановлений может парализовать работу сервисов&lt;/p&gt;" style="rounded=1;whiteSpace=wrap;html=1;fillColor=#128ECC;" vertex="1" parent="1">
          <mxGeometry x="910" y="570" width="180" height="60" as="geometry" />
        </mxCell>
        <mxCell id="BuE6CKhQtHcqcWTQn6iz-36" value="&lt;p&gt;Утечка приведёт к угрозам эксплуатации уязвимостей&lt;/p&gt;" style="rounded=1;whiteSpace=wrap;html=1;fillColor=#128ECC;" vertex="1" parent="1">
          <mxGeometry x="910" y="220" width="150" height="60" as="geometry" />
        </mxCell>
      </root>
    </mxGraphModel>
  </diagram>
</mxfile>
